<?xml version="1.0" standalone="no"?>
<!DOCTYPE svg PUBLIC "-//W3C//DTD SVG 20010904//EN"
 "http://www.w3.org/TR/2001/REC-SVG-20010904/DTD/svg10.dtd">
<svg version="1.0" xmlns="http://www.w3.org/2000/svg"
 width="1280.000000pt" height="792.000000pt" viewBox="0 0 1280.000000 792.000000"
 preserveAspectRatio="xMidYMid meet">
<metadata>
Created by potrace 1.15, written by Peter Selinger 2001-2017
</metadata>
<g transform="translate(0.000000,792.000000) scale(0.100000,-0.100000)"
fill="#717171" stroke="none">
<path d="M8480 7914 c-62 -11 -119 -29 -164 -51 -27 -14 -327 -245 -668 -514
-639 -505 -669 -527 -850 -598 -130 -51 -206 -64 -336 -59 -100 4 -132 10
-222 40 -227 77 -251 91 -948 577 -825 574 -768 536 -843 562 -84 29 -267 32
-379 6 -314 -73 -611 -233 -826 -445 -107 -106 -194 -250 -194 -323 0 -20 -34
-141 -199 -706 -39 -134 -102 -351 -141 -483 -38 -132 -101 -348 -140 -480
-108 -369 -187 -641 -469 -1610 -144 -492 -265 -907 -271 -922 l-9 -28 4578 0
4578 0 -48 163 c-26 89 -84 288 -129 442 -45 154 -113 388 -151 520 -39 132
-102 348 -140 480 -39 132 -102 348 -140 480 -39 132 -102 347 -140 478 -38
130 -100 344 -138 475 -38 130 -102 347 -141 482 -166 568 -200 689 -200 709
0 36 -45 145 -85 206 -52 79 -220 246 -320 316 -175 124 -368 216 -547 259
-79 20 -265 34 -318 24z"/>
<path d="M1827 2353 c-4 -3 -7 -197 -7 -430 l0 -423 4580 0 4580 0 -2 428 -3
427 -4571 3 c-2514 1 -4574 -1 -4577 -5z"/>
<path d="M0 565 l0 -565 6400 0 6400 0 0 565 0 565 -6400 0 -6400 0 0 -565z"/>
</g>
</svg>
